<?xml version="1.0" encoding="utf-8"?>
<!-- Uploaded to: SVG Repo, www.svgrepo.com, Generator: SVG Repo Mixer Tools -->
<svg width="800px" height="800px" viewBox="-46.6 0 323.003 323.003" xmlns="http://www.w3.org/2000/svg"><defs><style>.a{fill:#ffffff;}.b{fill:#85807f;}.c{fill:#211715;}.d{fill:#a0a0a0;}</style></defs><path class="a" d="M168.259,78.983a7.846,7.846,0,0,1,5.681-1.177c3.876.637,5.274,2.86,5.832,4.128,1.665,3.8.731,10.256-1.226,14.08a20.534,20.534,0,0,1-7.874,9.041,15.09,15.09,0,0,1-7.484,1.62c-.27.61-.468,1.062-.468,1.062-.967,1.957-3.242,5.374-3.242,5.374A70.533,70.533,0,0,1,152.1,122.2l2.093,6.079a27.515,27.515,0,0,0,2.284,5.365c2.716,4.491,8.5,6.864,13.217,9.169.808.395,1.7.795,2.644,1.195l-2.429,1.788a77.544,77.544,0,0,1-45.673,15.4c-6.164,0-12.42-.783-18.155-3.363A28.545,28.545,0,0,1,92.882,146c2.841-.952,5.588-1.9,7.548-2.729a10.949,10.949,0,0,0,6.363-5.639,40.058,40.058,0,0,1-20.688-9.579c-8.572-7.192-12.2-18.413-13.409-30.786C72,90.137,71.416,82.384,70.49,74.633c0,0-9.1-35.629,37.74-38.916C165.23,31.717,168.259,78.983,168.259,78.983Z"/><path class="b" d="M119.263,2.983q2.7-.332,5.52-.473c11.656-.582,23.318,1.577,35.9,10.5l7.824,5.547L170,19.934c7.524,6.947,11.2,14.885,13.617,24.575a48.615,48.615,0,0,1,1.353,14.919c-.356,5.3-.765,17.663-4.594,24.5a9.469,9.469,0,0,0-.605-2c-.558-1.268-1.956-3.491-5.832-4.128a7.846,7.846,0,0,0-5.681,1.177,16.164,16.164,0,0,1-6.6.484,1.148,1.148,0,0,1-.742-.389,11.078,11.078,0,0,1-1.049-1.583c-1.036-1.78-1.947-3.653-2.984-5.433a60.025,60.025,0,0,0-13.263-16.189c-18.85,0-43.766.018-59.179.031C78.193,61.654,71.5,72.01,70.806,76.222c0,0-.114.691-.286,1.7a90.534,90.534,0,0,1-.478-30.254A59.453,59.453,0,0,1,78.4,26.476,42.213,42.213,0,0,1,81.5,22.3C90.446,11.762,103.343,4.932,119.263,2.983Z"/><path class="c" d="M149.792,122.839a91.339,91.339,0,0,0,3.967,10.838,17.961,17.961,0,0,0,6.569,6.943c5.44,3.551,11.726,5.841,17.708,8.279a2.416,2.416,0,0,0,2.952-1.676,2.46,2.46,0,0,0-1.676-2.953c-5.4-2.2-10.941-4.321-15.923-7.39a13.823,13.823,0,0,1-5.384-5.426c-1.571-3.091-2.462-6.619-3.585-9.892-1-2.9-5.635-1.656-4.628,1.277Z"/><path class="c" d="M84.164,151.515c4.343-1.635,8.8-2.958,13.172-4.508a38.649,38.649,0,0,0,6.2-2.5,13.1,13.1,0,0,0,5.317-5.658,2.468,2.468,0,0,0-.861-3.284,2.42,2.42,0,0,0-3.283.861c-1.838,3.891-5.832,4.983-9.6,6.29-4.067,1.412-8.194,2.659-12.223,4.175a2.467,2.467,0,0,0-1.676,2.953,2.418,2.418,0,0,0,2.952,1.676Z"/><path class="c" d="M168.3,21.631c6.7,6.245,10.6,14.137,12.851,22.929,2.175,8.486,1.637,17.443.485,26.062-.563,4.211-1.371,8.7-3.525,12.423-1.55,2.679,2.6,5.1,4.145,2.423a35.155,35.155,0,0,0,3.818-12.273c.624-4,.941-8.032,1.187-12.071a57.247,57.247,0,0,0-1.012-15.877,61.751,61.751,0,0,0-4.775-13.935,44.968,44.968,0,0,0-9.78-13.075c-2.258-2.1-5.66,1.283-3.394,3.394Z"/><path class="c" d="M102.908,116.675a16.855,16.855,0,0,0,8.054,1.742,16.405,16.405,0,0,0,4.043-.529,30.523,30.523,0,0,0,4.35-1.884,2.41,2.41,0,0,0,.861-3.284,2.471,2.471,0,0,0-3.284-.861c-.607.273-1.2.575-1.8.864-.144.07-.289.138-.435.206-.666.313.212-.066-.164.071-.237.085-.473.165-.715.234s-.493.129-.743.181c-.129.027-.258.052-.388.074-.054.01-.484.077-.178.033s-.133.013-.188.018c-.138.014-.275.026-.413.036-.316.023-.631.037-.947.041-.57.009-1.14-.011-1.708-.057-.142-.012-.283-.027-.425-.041-.242-.022-.224-.027.006.007q-.414-.06-.825-.139a14.014,14.014,0,0,1-1.653-.426c-.122-.039-.242-.081-.362-.124-.055-.02-.449-.164-.147-.049s-.071-.033-.127-.061c-.131-.065-.261-.129-.39-.2a2.4,2.4,0,0,0-2.423,4.145Z"/><path class="c" d="M120.163,87.565c-.651-2.53.119-8.245,4.868-8.511,6.244.331,6.251,7.285,4,10.448C127.179,92.092,122.064,92.964,120.163,87.565Z"/><path class="c" d="M83.025,86.985c-.592-2.538.121-8.272,4.47-8.545,5.718.324,5.714,7.3,3.643,10.476C89.443,91.516,84.759,92.4,83.025,86.985Z"/><path class="c" d="M102.285,93.115c-.82,1.341-1.61,2.707-2.309,4.115a5.97,5.97,0,0,0-.718,2.252,3.258,3.258,0,0,0,1.041,2.582,5.141,5.141,0,0,0,2.033,1.211,8.7,8.7,0,0,0,1.552.23l-.638-.086.123.018a2.611,2.611,0,0,0,1.849-.242,2.4,2.4,0,0,0,.861-3.283,2.326,2.326,0,0,0-1.434-1.1c-.409-.065-.819-.1-1.228-.154l.638.085a2.718,2.718,0,0,1-.686-.183l.574.242a2.817,2.817,0,0,1-.51-.309l.486.375a3.043,3.043,0,0,1-.423-.4l.375.486a.746.746,0,0,1-.087-.153l.242.574a1.23,1.23,0,0,1-.062-.253l.086.638a1.9,1.9,0,0,1,.008-.272l-.086.638a2.786,2.786,0,0,1,.163-.565l-.242.573a36.519,36.519,0,0,1,2.537-4.59,2.4,2.4,0,0,0-4.145-2.423Z"/><path class="c" d="M148.619,128.668a67.387,67.387,0,0,0,10.622-11.163,55.547,55.547,0,0,0,5.551-8.556,2.458,2.458,0,0,0-.861-3.284,2.422,2.422,0,0,0-3.283.861,60.064,60.064,0,0,1-15.423,18.748,2.419,2.419,0,0,0,0,3.394,2.453,2.453,0,0,0,3.394,0Z"/><path class="c" d="M161.9,10.937A57.939,57.939,0,0,0,132.69.181a70.305,70.305,0,0,0-28.612,3.9A57.647,57.647,0,0,0,81.67,18.517a56.348,56.348,0,0,0-13.559,26.6c-2.42,11.075-1.991,23.158.248,34.221a2.4,2.4,0,0,0,4.629-1.276,82.369,82.369,0,0,1-.827-28.583C73.58,40.412,77.229,31.042,83.2,23.992c11.349-13.4,28.843-19.447,46.1-19.162a53.491,53.491,0,0,1,30.178,10.252,2.42,2.42,0,0,0,3.283-.861,2.451,2.451,0,0,0-.861-3.284Z"/><path class="c" d="M135.442,130.24c-12.224,5.435-26.6,7.908-39.054,1.755a35.731,35.731,0,0,1-14.407-12.234c-3.5-5.445-5.315-11.756-6.33-18.1-.665-4.161-.931-8.388-1.309-12.582-.433-4.82-.882-9.638-1.452-14.444a2.475,2.475,0,0,0-2.4-2.4,2.414,2.414,0,0,0-2.4,2.4c1.02,8.605,1.441,17.285,2.582,25.873.936,7.045,2.724,14.086,6.312,20.281,7.164,12.367,21.581,19.648,35.661,19.637,8.822-.007,17.218-2.481,25.22-6.039a2.418,2.418,0,0,0,.861-3.284,2.461,2.461,0,0,0-3.284-.861Z"/><path class="c" d="M169.471,81.056a6.009,6.009,0,0,1,7.474.812c.273.3-.164-.246.059.054.064.085.126.174.182.264.1.166.2.336.295.5.043.075.079.156.117.234.14.289-.144-.391.031.075a9.288,9.288,0,0,1,.325,1.07,14.067,14.067,0,0,1,.2,4.518c-.489,5.572-3.786,11.675-8.773,14.441a12.069,12.069,0,0,1-3.71,1.141,8.032,8.032,0,0,1-4.591-.408,2.466,2.466,0,0,0-3.284.861,2.422,2.422,0,0,0,.861,3.284,14.678,14.678,0,0,0,11.682-.065,19.55,19.55,0,0,0,8.886-8.095,25.308,25.308,0,0,0,3.712-10.972c.344-3.54-.108-7.436-2.515-10.211-3.194-3.682-9.381-4.251-13.373-1.653-2.58,1.679-.177,5.836,2.423,4.145Z"/><path class="a" d="M160.97,65.39,183.9,59.344a46.637,46.637,0,0,1,.7,11.988c-.338,7.652-2.166,11.513-2.166,11.513l-20.586,5.428"/><path class="c" d="M161.608,67.705l22.928-6.046-2.952-1.677c.063.258.11.52.157.781.052.289.1.58.141.87.024.171.019.124-.017-.14.015.11.029.221.042.331.023.2.047.4.069.6a58.614,58.614,0,0,1,.23,8.668,39.133,39.133,0,0,1-1.1,8.105c-.186.729-.4,1.454-.651,2.162-.071.2-.177.4-.23.6.018-.071.286-.65.135-.327l1.435-1.1-20.587,5.428c-2.984.787-1.718,5.418,1.277,4.629l13.4-3.535c2.306-.608,4.667-1.118,6.942-1.831a3,3,0,0,0,2.1-2.193c2.237-5.745,2.406-12.521,2.015-18.586a33.658,33.658,0,0,0-.735-5.737,2.436,2.436,0,0,0-2.953-1.676l-22.928,6.046c-2.985.787-1.719,5.418,1.276,4.629Z"/><path class="a" d="M149.852,55.885c-23.775-.027-62.462.019-75.322.028a25.963,25.963,0,0,0-8.7,1.5q-2.211.789-4.4,1.64A11.941,11.941,0,0,0,53.87,70.373c.1,6.468.236,12.516.257,21.464a11.935,11.935,0,0,0,11.93,11.913l72.663,0a43.144,43.144,0,0,0,15.5-2.875l.167-.064a11.931,11.931,0,0,0,7.654-11.259c-.075-6.958-.183-15.273-.274-21.9A11.928,11.928,0,0,0,149.852,55.885Z"/><path class="c" d="M149.852,53.485q-28.118-.032-56.234.011l-11.682.011c-3.077,0-6.2-.144-9.274.073a33.133,33.133,0,0,0-9.235,2.155,21.723,21.723,0,0,0-7.177,3.732,14.439,14.439,0,0,0-4.008,6.067,20.547,20.547,0,0,0-.732,7.34c.085,5.132.171,10.263.2,15.394.017,2.65-.144,5.355.695,7.91a14.359,14.359,0,0,0,9.952,9.49,29.172,29.172,0,0,0,7.519.481H87.294l32.6,0h12.877a81.078,81.078,0,0,0,14.016-.727c5.119-.892,10.975-2.418,14.377-6.645a14.3,14.3,0,0,0,3.079-6.791,52.929,52.929,0,0,0,.133-8.532q-.051-4.288-.107-8.577c-.036-2.732.1-5.536-.156-8.258A14.469,14.469,0,0,0,156.7,55.232a14.83,14.83,0,0,0-6.847-1.747c-3.09-.048-3.091,4.752,0,4.8a9.652,9.652,0,0,1,8.727,5.69c.868,1.972.795,4.022.823,6.13q.055,4.072.107,8.144.053,4.154.1,8.306c.026,2.285.215,4.547-.657,6.713-1.806,4.484-6.393,5.912-10.709,6.955a56.672,56.672,0,0,1-13.518,1.124h-65.7c-2.213,0-4.4.159-6.5-.666a9.591,9.591,0,0,1-5.979-8.32c-.236-5.162-.08-10.37-.165-15.539-.067-4.109-.839-8.672,1.676-12.236a9.916,9.916,0,0,1,4.674-3.479,41.086,41.086,0,0,1,8.258-2.545,61.675,61.675,0,0,1,9.47-.256l10.3-.009q26.673-.024,53.345-.019,2.879,0,5.758,0C152.941,58.288,152.945,53.488,149.852,53.485Z"/><path class="c" d="M139.491,73.18c.092,6.764.018,13.532.017,20.3,0,3.088,4.8,3.093,4.8,0,0-6.765.075-13.533-.017-20.3-.042-3.086-4.842-3.1-4.8,0Z"/><path class="c" d="M77.475,68.9c16.545,0,33.091-.047,49.636,0,2.017.006,4.043-.034,6.059.047,3.089.124,3.084-4.676,0-4.8-5.209-.21-10.454-.058-15.666-.061q-13.7-.007-27.409.008-6.309,0-12.62.005c-3.088,0-3.093,4.8,0,4.8Z"/><path class="a" d="M174.758,310.561c9.778,2.891,23.069,3.434,31.6-1.335,6.91-3.86,11.962-10.768,14.491-17.965,5.635-16.033,6.1-45.5,6.464-58.318a226.865,226.865,0,0,0-1.827-37.763c-.845-6.194-2.875-14.074-5.888-19.461-3.3-5.905-9.865-12.779-13.335-15.688-8.138-6.821-19.681-12.415-32.75-17.07l-1.086.856-2.518,1.983a77.544,77.544,0,0,1-45.673,15.4c-6.164,0-12.42-.783-18.155-3.363a28.211,28.211,0,0,1-13.877-13.153c-1.453.369-3.8.974-4.8,1.267-10.586,3.114-24.993,8.522-32.4,15.939a54.216,54.216,0,0,0-9.8,11.954L25.823,211.163,11.129,243.346c-2.25.917-3.443,2.489-4.471,5.991.091,7.387,6.739,31.279,9.814,38.851a59.189,59.189,0,0,0,9.048,14.893,21.747,21.747,0,0,0,14.948,7.634c8.716.414,21.173-7.567,24.128-14.22l2-4.493c.69,6.851,1.35,13.753,1.982,20.48.029.3.153,1.494.154,1.676l126.428-1.474"/><path class="c" d="M92.793,142.063A145.167,145.167,0,0,0,71.148,149.2c-7.587,3.234-14.61,7.32-20.2,13.463a71,71,0,0,0-9.289,12.838c-1.52,2.694,2.625,5.116,4.145,2.423,3.641-6.448,8.459-13.059,14.552-17.433C67.525,155.349,76,152.079,84.349,149.4c3.209-1.029,6.453-1.891,9.72-2.711,2.994-.752,1.726-5.383-1.276-4.629Z"/><path class="c" d="M57.735,233.31q3.956,32.773,7.148,65.636,1.062,10.824,2.023,21.657a2.462,2.462,0,0,0,2.4,2.4,2.418,2.418,0,0,0,2.4-2.4c-2.124-24.126-4.663-48.217-7.412-72.279q-.858-7.511-1.759-15.014a2.475,2.475,0,0,0-2.4-2.4,2.413,2.413,0,0,0-2.4,2.4Z"/><path class="c" d="M9.917,241.274a9.868,9.868,0,0,0-5.6,9.21A67.368,67.368,0,0,0,5.7,259.138c1.522,7.259,3.472,14.447,5.664,21.531,2.265,7.319,5.127,14.229,9.635,20.5a29.154,29.154,0,0,0,10.38,9.488A21.361,21.361,0,0,0,44.8,312.763a33.735,33.735,0,0,0,13.054-5.7c3.455-2.4,7.02-5.45,8.812-9.353a2.471,2.471,0,0,0-.861-3.283,2.419,2.419,0,0,0-3.284.861A19.1,19.1,0,0,1,56.3,302.3a32.844,32.844,0,0,1-10.009,5.172,16.528,16.528,0,0,1-10.882-.25,21.7,21.7,0,0,1-9.419-7.329,59.492,59.492,0,0,1-9.368-18.5c-2.083-6.49-3.895-13.08-5.445-19.716-.414-1.769-.8-3.544-1.156-5.326q-.228-1.159-.431-2.324-.093-.538-.177-1.077a6.86,6.86,0,0,0-.108-.7c-.077-.586-.143-1.174-.188-1.763a3.048,3.048,0,0,1,.238-1.689,4.861,4.861,0,0,1,2.989-3.377,2.414,2.414,0,0,0,.861-3.283,2.462,2.462,0,0,0-3.284-.861Z"/><path class="c" d="M90.068,145.8a30.464,30.464,0,0,0,12.476,12.944c5.924,3.307,12.715,4.6,19.437,4.825a78.268,78.268,0,0,0,37.986-8.789,86.837,86.837,0,0,0,14.16-9.263,2.415,2.415,0,0,0,0-3.4,2.46,2.46,0,0,0-3.394,0c-1.089.859-2.316,1.824-3.105,2.386a81.223,81.223,0,0,1-7.781,4.9,76.033,76.033,0,0,1-16.738,6.818,71.941,71.941,0,0,1-17.6,2.565c-6.262.121-12.807-.5-18.552-3.177a26.45,26.45,0,0,1-12.745-12.238,2.424,2.424,0,0,0-3.284-.861,2.449,2.449,0,0,0-.861,3.283Z"/><path class="c" d="M166.545,143.123a162.724,162.724,0,0,1,23.887,9.584,67.835,67.835,0,0,1,17.1,11.751c5.234,5.17,9.947,10.959,12.432,17.962,2.858,8.059,3.786,16.6,4.43,25.08,1.117,14.717.622,29.572-.146,44.3-.365,7.006-.883,14.019-1.816,20.974-.855,6.369-1.958,12.91-4.294,18.926-2.671,6.883-7.9,13.3-14.741,16.334-6.518,2.891-14.455,2.833-21.189.762a25.7,25.7,0,0,1-4.617-1.918c-2.722-1.459-5.149,2.683-2.422,4.145a36.575,36.575,0,0,0,23.357,3.417c8.187-1.429,14.961-6.3,19.742-13,4.255-5.957,6.271-13.028,7.623-20.132a194.361,194.361,0,0,0,2.705-22.227c.491-6.735.762-13.483.956-20.232.231-8.006.409-16,.073-24.011-.388-9.225-1.026-18.718-3.25-27.706a53,53,0,0,0-4.352-11.98,52.054,52.054,0,0,0-6.945-9.658,67.556,67.556,0,0,0-16.642-13.862,137.5,137.5,0,0,0-24.08-10.917q-3.251-1.161-6.536-2.221c-2.945-.956-4.206,3.678-1.276,4.628Z"/><path class="d" d="M133.342,257.083c-.777-.976-5.518-7.184-6.137-8.288a6.1,6.1,0,0,1-.751-1.834,2.514,2.514,0,0,1,.053-1.2c.392-2.3,1.954-3.631,3.459-4.882,4.883-4.056,16.456-11.216,22.077-13.98a5.414,5.414,0,0,1,5.243.18c1.894,1.44,3.2,2.117,3.937,4.5l9.4,13.964L139.1,264.5Z"/><path class="d" d="M42.9,197.627a76.169,76.169,0,0,0,2.12-10.157,3.868,3.868,0,0,0-.148-1.45,2.184,2.184,0,0,0-.677-.921c-3.744-2.256-7.8-3.266-12.181-4.143a24.275,24.275,0,0,0-5.158-.553,4.179,4.179,0,0,0-2.411.575,6.465,6.465,0,0,0-1.831,1.68c-1.184,1.859-2.145,3.746-3.462,5.9l-3.185,6.912L41.573,205.69Z"/><path class="a" d="M11.407,252.208,4.321,233.4C2.948,229.7,2.4,227.6,2.4,224.494a19.725,19.725,0,0,1,1.182-7.014c1.186-3.468,2.427-6.085,3.262-9.1.848-3.055,1.477-5.91,2.361-8.761a46.318,46.318,0,0,1,1.342-5.045c1.366-3.09,3.115-5.136,7.018-5.24a21.788,21.788,0,0,1,4.588.492,80.843,80.843,0,0,1,10.112,3.146,8.981,8.981,0,0,1,3.483,2.383c3.322-1.244,4.809-.729,6.193.739,1.053,1.117,1.758,3.45,2.185,5.577,3.275,16.3,7.415,27.824-2.607,42.952a8.973,8.973,0,0,0-1.443,5.3,5.229,5.229,0,0,1-3.5,5,39.579,39.579,0,0,1-20.367.953C14.619,255.511,11.524,254.1,11.407,252.208Z"/><path class="a" d="M176.7,298.4a30.981,30.981,0,0,0,7.063-.674,24.677,24.677,0,0,0,8.694-11.442,37.542,37.542,0,0,0,2.451-12.813,4.825,4.825,0,0,0-1.184-3.287c-3.344-3.809-6.858-7-10.242-11.334-1.972-2.527-4.521-7.134-6.506-10.445-3.819-6.371-4.038-11.468-9.311-17.014-1-1.048-4.038-1.047-5.373-.08a6.65,6.65,0,0,0-2.479,6.736c.9,4.03,1.73,8.031,3.916,11.632a84.859,84.859,0,0,0-13.248-.77,11.473,11.473,0,0,0-2.571.419,12.44,12.44,0,0,0-3.157,1.311c-3.726,2.256-7.09,5.033-10.629,7.376A6.573,6.573,0,0,0,132.5,266.6c1.841,3.116,5.111,2.968,7.247,2.244-.142.394-.233.649-.233.649a8.878,8.878,0,0,0,.166,6.748,4.751,4.751,0,0,0,4.711,2.587c.055-.008.109-.016.164-.026,0,1.388,0,2.6,0,2.6,0,1.908.385,4.037,1.993,5.177a5.6,5.6,0,0,0,4.838.425c-.111.217-.173.342-.173.342a3.369,3.369,0,0,0,.4,3.651,3.561,3.561,0,0,0,3.444,1,17.479,17.479,0,0,1,4.154.359c1.884.44,3.15,1.955,4.647,3.144a14.6,14.6,0,0,0,6.388,2.476C172.233,298.174,174.418,298.378,176.7,298.4Z"/><path class="a" d="M145.274,278.6a8.08,8.08,0,0,0,1.785-.911"/><path class="c" d="M20.741,204.223c1.848.43,3.7.837,5.553,1.248a28.9,28.9,0,0,0,5.128.959,8.029,8.029,0,0,0,5.544-1.58,7.448,7.448,0,0,0,2.519-5.057c.731-7.659-8.1-9.916-13.8-11.522-3.185-.9-6.541-1.678-9.861-1.158a9.569,9.569,0,0,0-7.066,5.65,29.63,29.63,0,0,0-1.712,5.683c-.519,1.984-1.116,3.948-1.625,5.937-1,3.907-2.392,7.573-3.76,11.358A24.418,24.418,0,0,0,.148,227.018c.487,4.061,2.166,7.839,3.6,11.636l4.823,12.8c.68,1.8,1.075,3.408,2.709,4.677a11.589,11.589,0,0,0,4.185,2.031,38.477,38.477,0,0,0,11.179.964c3.828-.176,8.336-.611,11.793-2.406a7.7,7.7,0,0,0,3.581-4.134c.626-1.655.269-3.421.773-5.094.516-1.711,1.836-3.206,2.7-4.761A42.042,42.042,0,0,0,48,237.287c2.547-6.71,2.561-13.8,1.513-20.806-.547-3.659-1.349-7.275-2.121-10.891s-1.085-8.042-3.559-10.965a6.7,6.7,0,0,0-4.819-2.366,2.4,2.4,0,1,0,0,4.8c.921.064,1.463.966,1.8,1.722A25.209,25.209,0,0,1,42.159,204c.683,3.291,1.427,6.569,2.058,9.87,1.069,5.6,1.781,11.426.63,17.075a32.257,32.257,0,0,1-3.094,8.6c-.811,1.54-1.829,2.951-2.667,4.47a11.785,11.785,0,0,0-1.392,5.08c-.066,1.195-.022,2.249-1.041,3.08a9.681,9.681,0,0,1-3.825,1.327,37.311,37.311,0,0,1-10.12.822c-2.6-.12-5.689-.263-7.974-1.617a3.626,3.626,0,0,1-.968-.771c.087.1-.008.169.041.272-.194-.405-.264-1.11-.436-1.568l-2.249-5.968Q8.967,238.95,6.81,233.229A24.622,24.622,0,0,1,4.8,224.494c.006-3.487,1.095-6.522,2.334-9.738A86.85,86.85,0,0,0,10.216,205c.439-1.708.946-3.394,1.409-5.094a28.24,28.24,0,0,1,1.276-4.721c.99-2.112,2.246-3.38,4.667-3.448,3.036-.084,6.016.888,8.887,1.761,2.383.725,5.82,1.393,7.486,3.425a3.64,3.64,0,0,1,.742,2.774c-.238,1.416-1.192,1.882-2.5,1.931a18.432,18.432,0,0,1-4.612-.786c-1.852-.412-3.705-.819-5.553-1.249-3.006-.7-4.288,3.927-1.276,4.629Z"/><path class="c" d="M21.221,189.773c.969-1.6,1.856-3.248,2.816-4.854.569-.95,1.24-2.026,2.444-2.109,3.43-.238,7.146.809,10.4,1.766a26.608,26.608,0,0,1,4.582,1.757,5.309,5.309,0,0,1,1.194.632c.09.092-.01-.054-.038-.125a3.646,3.646,0,0,1-.087,1.2,68.661,68.661,0,0,1-1.954,8.947c-.866,2.971,3.765,4.24,4.629,1.276.546-1.873.981-3.779,1.367-5.691a33.529,33.529,0,0,0,.849-5.266,4.953,4.953,0,0,0-2.776-4.716,31.621,31.621,0,0,0-6.081-2.523,59.662,59.662,0,0,0-6.356-1.512,21.718,21.718,0,0,0-6.447-.479c-4.743.553-6.543,5.723-8.69,9.272-1.6,2.65,2.546,5.065,4.144,2.423Z"/><path class="c" d="M31.265,207.278a10.472,10.472,0,0,1,1.213.775c-.411-.3.273.236.341.3q.239.209.466.427c.276.263.526.547.79.82s-.367-.545-.042-.045c.062.095.125.188.184.284.141.23.25.473.378.709.192.353-.219-.618-.018-.035.038.111.079.222.114.334a7.1,7.1,0,0,1,.206.8c.016.077.03.155.043.232q.059.376-.036-.288a1.6,1.6,0,0,0,.036.409,6.666,6.666,0,0,1,0,.812c0,.057-.008.115-.014.172-.028.252-.013.152.043-.3a1.752,1.752,0,0,0-.075.389c-.03.128-.064.255-.1.38-.029.092-.219.569-.034.131s-.023.027-.07.113c-.062.113-.134.22-.2.331-.262.437.374-.367.071-.089-.1.089-.178.195-.274.285-.041.039-.084.077-.127.115q-.28.231.212-.16a2.829,2.829,0,0,0-.352.226c-.123.071-.27.12-.386.2.523-.354.279-.114.023-.033-.154.048-.311.09-.469.124-.671.148.355-.02-.1.03a2.458,2.458,0,0,0-2.4,2.4,2.425,2.425,0,0,0,2.4,2.4,7.764,7.764,0,0,0,4.465-1.791,6.571,6.571,0,0,0,1.959-3.329,9.355,9.355,0,0,0-1.3-7.226,13.145,13.145,0,0,0-4.522-4.042,2.4,2.4,0,0,0-2.422,4.145Z"/><path class="c" d="M20.056,214.231a33.07,33.07,0,0,1,6.752,2.2,30.466,30.466,0,0,1,3.205,1.709,7.552,7.552,0,0,1,2.324,1.971c-.14-.183.222.366.271.453.063.109.122.22.179.333-.023-.045-.1-.259.007,0a6.894,6.894,0,0,1,.216.718c.072.263.03.039.02-.026a3.535,3.535,0,0,1,.028.493,3.115,3.115,0,0,1-.024.493c.011-.067.051-.289-.024-.03-.033.113-.06.227-.1.337.02-.055.143-.284.005-.056-.059.1-.113.2-.177.293.028-.042.206-.235.021-.038-.079.084-.159.164-.241.244.168-.165.1-.049-.054.039a3.12,3.12,0,0,1-.394.215c.056-.022.3-.105.051-.052-.278.059.052.015.094.012a2.178,2.178,0,0,1-.333,0c-.269-.019-.015-.014.022-.007s-.383-.123-.254-.068c-.21-.089-.62-.289-.895-.419-1.092-.519-2.192-1.018-3.306-1.488a44.5,44.5,0,0,0-7.335-2.368,2.4,2.4,0,0,0-1.276,4.629c1.337.308,2.664.657,3.968,1.086q.867.285,1.718.611.4.153.793.313c.042.018.508.211.283.116-.165-.069.416.181.406.177,1.365.6,2.687,1.327,4.079,1.857a5.461,5.461,0,0,0,4.705-.415,6.593,6.593,0,0,0,2.54-8.179c-1.174-2.907-3.618-4.759-6.306-6.207a36.918,36.918,0,0,0-9.691-3.585,2.4,2.4,0,0,0-1.276,4.629Z"/><path class="c" d="M29.334,227.738c.036.061.29.434.271.509.018-.072-.138-.41-.045-.07a3.074,3.074,0,0,0,.127.5c-.1-.092-.04-.543-.02-.077.006.13,0,.258,0,.388.006.433.1-.39.015-.121-.035.113-.065.234-.093.349-.108.454.259-.448.024-.057-.047.078-.1.157-.138.237-.206.386.366-.351.047-.063-.079.071-.164.149-.237.227-.175.188.473-.265.121-.11-.118.052-.236.121-.349.183-.253.139.436-.134.009-.016-.165.046-.326.1-.494.136-.081.018-.573.1-.185.044s-.157.006-.192.008c-.144.009-.289.012-.433.014-.3,0-.589-.011-.882-.031q-.874-.058-1.749-.106c-.6-.032-1.208-.066-1.811-.115-.337-.028-.675-.06-1.012-.1-.162-.019-.547.019,0,0a2.882,2.882,0,0,1-.536-.088,2.455,2.455,0,0,0-2.952,1.676,2.43,2.43,0,0,0,1.676,2.952,41.581,41.581,0,0,0,4.982.492,13.41,13.41,0,0,0,4.781-.23,5.794,5.794,0,0,0,3.885-3.579,6.4,6.4,0,0,0-.663-5.373,2.4,2.4,0,0,0-4.145,2.423Z"/><path class="c" d="M166.163,247.623c-3-.452-6-.83-9.025-.989-2.951-.155-6.122-.426-9.029.183a21.628,21.628,0,0,0-7.873,3.921c-2.531,1.768-5.065,3.557-7.56,5.373-4.726,3.441-4.624,11.308.409,14.447,3.548,2.214,7.486.788,10.707-1.178q2.906-1.774,5.864-3.461a23.306,23.306,0,0,1,2.263-1.226,7.041,7.041,0,0,1,4.08-.14,2.467,2.467,0,0,0,2.952-1.676,2.421,2.421,0,0,0-1.676-2.952c-2.758-.493-5.258-.583-7.843.654-1.372.657-2.684,1.466-4,2.232q-2.3,1.341-4.569,2.733c-.444.273-.883.552-1.337.808-.543.307.285-.094-.1.054-.143.056-.287.106-.433.154-.193.062-.387.118-.584.167-.069.017-.745.152-.375.1a3.1,3.1,0,0,1-3.469-1.441,4.269,4.269,0,0,1,.449-5,18.592,18.592,0,0,1,2.76-1.993c1.189-.85,2.365-1.72,3.552-2.573,2.008-1.443,4.127-3.2,6.5-3.974,2.7-.882,5.721-.57,8.526-.451a79.831,79.831,0,0,1,8.523.853,2.478,2.478,0,0,0,2.952-1.676,2.418,2.418,0,0,0-1.676-2.952Z"/><path class="c" d="M137.441,268.277a9.734,9.734,0,0,0-.855,5.3,9.5,9.5,0,0,0,1.889,5.15,7.242,7.242,0,0,0,4.885,2.511,8.274,8.274,0,0,0,5.29-1.722c1.418-.945,2.834-1.9,4.187-2.936a2.638,2.638,0,0,0,1.1-1.434,2.451,2.451,0,0,0-.242-1.849c-.632-.981-2.218-1.679-3.283-.861-1.318,1.01-2.7,1.94-4.077,2.862-.275.183-.548.372-.83.543-.179.108-.361.211-.547.307-.126.065-.254.126-.384.184q.369-.156-.021-.011c-.177.044-.424.187-.6.158q.463-.05.055-.017c-.094,0-.187,0-.281,0-.626-.015.272.125-.174-.013-.2-.06-.4-.116-.592-.176q-.252-.1.174.072c-.1-.049-.2-.1-.3-.158-.064-.037-.4-.185-.425-.27q.4.32.1.074-.12-.1-.234-.213c-.109-.107-.207-.222-.312-.333-.292-.309.29.465-.036-.082-.054-.09-.1-.274-.175-.335q.2.482.054.11c-.03-.081-.058-.163-.084-.245q-.1-.294-.174-.594-.068-.265-.12-.534c-.024-.121-.046-.243-.065-.365.041.331.045.358.013.083a12.405,12.405,0,0,1-.051-1.307c.005-.184.02-.366.032-.55.03-.275.023-.241-.019.1.018-.116.04-.231.064-.346.036-.167.078-.333.128-.5.032-.106.067-.211.106-.315q-.215.483-.051.131a2.4,2.4,0,0,0-4.144-2.422Z"/><path class="c" d="M142.153,281.4a9.831,9.831,0,0,0,1.306,5.329,6.705,6.705,0,0,0,5.579,3.013c4,.089,7.676-2.388,10.511-4.956a2.417,2.417,0,0,0,0-3.394,2.453,2.453,0,0,0-3.394,0c-.3.272-.6.542-.912.8-.169.143-.34.281-.512.421.259-.21.057-.042-.094.068a14.835,14.835,0,0,1-1.781,1.121c-.31.166-.627.317-.944.47-.408.2.178-.054-.09.042-.164.059-.325.126-.489.183-.33.115-.666.216-1.006.3-.2.049-.406.084-.611.126.333-.068.169-.017-.074,0a8.776,8.776,0,0,1-1-.007c-.285-.012.4.11-.038-.023-.153-.046-.311-.1-.465-.138-.246-.069.315.2-.047-.041-.141-.094-.481-.428-.145-.07a4.355,4.355,0,0,0-.329-.323c-.218-.184.254.435-.015-.018-.077-.13-.159-.257-.23-.392-.132-.253-.112-.3-.02-.013-.095-.3-.2-.588-.264-.894-.042-.185-.071-.37-.1-.557.056.314.033.269.009-.02-.029-.343-.039-.686-.041-1.03a2.4,2.4,0,0,0-4.8,0Z"/><path class="c" d="M149.139,286.13c-1.149,2.7-.711,6.059,2.076,7.62,2.023,1.133,4.4.451,6.6.774,2.1.31,3.286,1.932,4.929,3.117a15.533,15.533,0,0,0,6.476,2.6,50.491,50.491,0,0,0,8.412.557,35.5,35.5,0,0,0,4.394-.341,17.392,17.392,0,0,0,2.142-.366,6.494,6.494,0,0,0,2.274-1.377,27.585,27.585,0,0,0,8.627-12.6,39.742,39.742,0,0,0,1.9-8.117c.359-2.762.81-5.876-.7-8.384a19.894,19.894,0,0,0-2.633-3.1c-1-1.07-2.011-2.121-3.018-3.181a72.265,72.265,0,0,1-5.345-6.07,62.462,62.462,0,0,1-3.814-5.981c-1.3-2.21-2.691-4.4-3.826-6.7-2.11-4.278-3.443-8.84-6.388-12.671a10,10,0,0,0-2.942-3,7.264,7.264,0,0,0-3.672-.707,7.388,7.388,0,0,0-6.36,4.234c-1.354,2.754-.983,5.361-.325,8.241a37.876,37.876,0,0,0,3.216,9.342c1.44,2.735,5.584.311,4.145-2.422a29.043,29.043,0,0,1-2.368-6.651c-.433-1.754-1.212-3.734-.709-5.53A2.951,2.951,0,0,1,164.791,233a3.121,3.121,0,0,1,.891.043c.175.033.465.174.288.045A10.351,10.351,0,0,1,168,235.562c2.3,3.356,3.493,7.26,5.227,10.906a99.993,99.993,0,0,0,6.51,11.2,73.694,73.694,0,0,0,8.85,10.491c.757.794,1.512,1.59,2.253,2.4A5.064,5.064,0,0,1,192.489,273a14.1,14.1,0,0,1-.125,3.236,31.418,31.418,0,0,1-.506,3.481,28.408,28.408,0,0,1-4.988,11.757c-1.066,1.395-2.723,3.578-4.458,4.089a23.355,23.355,0,0,1-7.285.4,24.171,24.171,0,0,1-7.2-1.015c-2-.722-3.286-2.032-4.937-3.3a11.12,11.12,0,0,0-6.375-2.039c-.692-.048-4.034.606-3.328-1.054a2.48,2.48,0,0,0-.861-3.283,2.415,2.415,0,0,0-3.283.861Z"/><path class="c" d="M163.537,230.938c-1.565-4.682-6.921-8.375-11.838-6.486a39.6,39.6,0,0,0-5.157,2.673q-2.931,1.661-5.793,3.439a128.167,128.167,0,0,0-11.306,7.681c-1.685,1.309-3.5,2.715-4.472,4.666a7.094,7.094,0,0,0,.328,7.366,100.024,100.024,0,0,0,6.346,8.5,2.415,2.415,0,0,0,3.394,0,2.459,2.459,0,0,0,0-3.394q-.141-.179-.279-.357c-.24-.308.036.048.07.092l-.307-.4q-.648-.845-1.291-1.694c-.947-1.25-1.891-2.5-2.809-3.774-.533-.737-1.613-1.908-1.6-2.856.022-1.775,1.987-3.136,3.21-4.125a127.11,127.11,0,0,1,18.8-12.04c1.319-.715,2.881-1.838,4.461-1.461a6.183,6.183,0,0,1,2.155,1.407,4.109,4.109,0,0,1,1.465,2.034c.975,2.915,5.612,1.665,4.628-1.276Z"/></svg>